<?xml version="1.0" encoding="UTF-8" standalone="no"?>
<!-- Created with Inkscape (http://www.inkscape.org/) -->

<svg
   version="1.1"
   id="svg9"
   width="19"
   height="24.999987"
   viewBox="-2.7755576e-17 0 19 24.999987"
   sodipodi:docname="Hum.svg"
   inkscape:version="1.1.2 (b8e25be833, 2022-02-05)"
   inkscape:export-filename="C:\Users\SOMMERAUERC\Desktop\Hum1.png"
   inkscape:export-xdpi="96"
   inkscape:export-ydpi="96"
   xmlns:inkscape="http://www.inkscape.org/namespaces/inkscape"
   xmlns:sodipodi="http://sodipodi.sourceforge.net/DTD/sodipodi-0.dtd"
   xmlns="http://www.w3.org/2000/svg"
   xmlns:svg="http://www.w3.org/2000/svg">
  <defs
     id="defs13" />
  <sodipodi:namedview
     id="namedview11"
     pagecolor="#505050"
     bordercolor="#eeeeee"
     borderopacity="1"
     inkscape:pageshadow="0"
     inkscape:pageopacity="0"
     inkscape:pagecheckerboard="true"
     showgrid="false"
     inkscape:zoom="27.28125"
     inkscape:cx="9.072165"
     inkscape:cy="12.646048"
     inkscape:window-width="1920"
     inkscape:window-height="1137"
     inkscape:window-x="-8"
     inkscape:window-y="-8"
     inkscape:window-maximized="1"
     inkscape:current-layer="g15"
     height="511.65967px"
     viewbox-width="383.5062"
     viewbox-x="0"
     viewbox-height="25" />
  <g
     inkscape:groupmode="layer"
     inkscape:label="Image"
     id="g15"
     style="display:inline"
     transform="translate(-246.49144,-243.346)">
    <path
       style="display:inline;fill:#000000;stroke-width:0.0492005"
       d="m 255.19918,268.33167 c -1.64072,-0.20168 -2.86626,-0.59381 -4.05355,-1.297 -3.59524,-2.12932 -5.3896,-6.32358 -4.37143,-10.21806 0.19938,-0.76264 0.43693,-1.38435 0.84404,-2.20903 0.73584,-1.49057 1.5853,-2.72314 3.88929,-5.6434 1.97137,-2.49867 2.52577,-3.24961 3.42588,-4.64035 0.52394,-0.80954 0.70248,-0.97611 1.04804,-0.97781 0.34553,-0.002 0.53528,0.15695 0.94342,0.78886 0.92872,1.43786 1.76053,2.56605 3.71266,5.03548 2.1127,2.67254 3.01041,3.98174 3.72826,5.43722 0.40705,0.8253 0.64453,1.44707 0.84374,2.20903 0.80883,3.09375 -0.15195,6.45808 -2.50778,8.78147 -1.41996,1.4004 -3.22588,2.31369 -5.2236,2.64168 -0.45833,0.0752 -1.93124,0.13465 -2.27897,0.0919 z m 1.62448,-1.58482 c 2.78571,-0.29791 5.20963,-2.02001 6.36281,-4.52053 0.38351,-0.83157 0.58759,-1.57116 0.68666,-2.48838 0.25476,-2.35847 -0.70012,-4.69392 -3.31622,-8.11086 -0.20575,-0.26873 -0.97764,-1.25816 -1.71531,-2.19872 -1.41616,-1.80568 -2.05745,-2.65776 -2.52816,-3.35917 -0.1578,-0.23514 -0.30251,-0.42753 -0.32157,-0.42753 -0.0191,0 -0.16378,0.19239 -0.32158,0.42753 -0.47071,0.70141 -1.112,1.55349 -2.52816,3.35917 -0.73768,0.94056 -1.50957,1.92999 -1.71531,2.19872 -2.6161,3.41694 -3.57098,5.75239 -3.31623,8.11086 0.0991,0.91722 0.30317,1.65681 0.68667,2.48838 1.40321,3.04269 4.66539,4.87997 8.0264,4.52053 z m 1.19946,-1.54353 c -0.94166,-0.18443 -1.65663,-0.79011 -1.91421,-1.62162 -0.11213,-0.36195 -0.11367,-1.02116 -0.003,-1.37103 0.22875,-0.72459 0.8429,-1.33433 1.5623,-1.55109 0.3703,-0.11158 1.03352,-0.11158 1.40382,0 0.7194,0.21676 1.33356,0.8265 1.56231,1.55109 0.11046,0.34987 0.10892,1.00908 -0.003,1.37103 -0.2168,0.69984 -0.84067,1.31739 -1.54684,1.53114 -0.26161,0.0792 -0.85863,0.13011 -1.06098,0.0905 z m 0.66035,-1.59874 c 0.50903,-0.20976 0.63312,-0.86792 0.23725,-1.25834 -0.55662,-0.54896 -1.46874,-0.0573 -1.32226,0.71279 0.0875,0.46 0.6303,0.73292 1.08501,0.54555 z m -6.99294,-0.0155 c -0.36871,-0.17919 -0.55204,-0.65371 -0.38593,-0.99893 0.0455,-0.0945 1.85298,-1.91324 4.17964,-4.20552 4.44545,-4.37981 4.19147,-4.15722 4.64721,-4.0729 0.23408,0.0433 0.5506,0.35548 0.59451,0.58632 0.0855,0.44947 0.31121,0.19898 -4.12976,4.58322 -2.25244,2.22367 -4.16599,4.0761 -4.25234,4.11651 -0.20292,0.095 -0.4467,0.0917 -0.65333,-0.009 z m 1.57647,-6.20343 c -0.94166,-0.18443 -1.65662,-0.79011 -1.91421,-1.62162 -0.11212,-0.36194 -0.11367,-1.02115 -0.003,-1.37103 0.22876,-0.72459 0.84291,-1.33433 1.5623,-1.55109 0.3703,-0.11157 1.03353,-0.11157 1.40383,0 0.71939,0.21676 1.33355,0.8265 1.56231,1.55109 0.11045,0.34988 0.10891,1.00909 -0.003,1.37103 -0.2168,0.69984 -0.84067,1.31739 -1.54682,1.53115 -0.26163,0.0792 -0.85865,0.1301 -1.06099,0.0905 z m 0.66036,-1.59874 c 0.50903,-0.20976 0.63312,-0.86792 0.23724,-1.25834 -0.32135,-0.31694 -0.78023,-0.31694 -1.1016,0 -0.61267,0.60424 0.0634,1.58841 0.86436,1.25834 z"
       id="path117" />
  </g>
</svg>
