<?xml version="1.0" encoding="UTF-8" standalone="no"?>
<!-- Created with Inkscape (http://www.inkscape.org/) -->

<svg
   version="1.1"
   id="svg286"
   width="15.000001"
   height="25.000002"
   viewBox="0 0 15.000001 25.000002"
   sodipodi:docname="Temp.svg"
   inkscape:version="1.1.2 (b8e25be833, 2022-02-05)"
   xmlns:inkscape="http://www.inkscape.org/namespaces/inkscape"
   xmlns:sodipodi="http://sodipodi.sourceforge.net/DTD/sodipodi-0.dtd"
   xmlns="http://www.w3.org/2000/svg"
   xmlns:svg="http://www.w3.org/2000/svg">
  <defs
     id="defs290" />
  <sodipodi:namedview
     id="namedview288"
     pagecolor="#505050"
     bordercolor="#eeeeee"
     borderopacity="1"
     inkscape:pageshadow="0"
     inkscape:pageopacity="0"
     inkscape:pagecheckerboard="0"
     showgrid="false"
     inkscape:zoom="27.28125"
     inkscape:cx="16.806415"
     inkscape:cy="13.892325"
     inkscape:window-width="1920"
     inkscape:window-height="1137"
     inkscape:window-x="-8"
     inkscape:window-y="-8"
     inkscape:window-maximized="1"
     inkscape:current-layer="g292" />
  <g
     inkscape:groupmode="layer"
     inkscape:label="Image"
     id="g292"
     transform="translate(-105.0077,-0.04629979)">
    <g
       id="g3839"
       transform="matrix(0.04969551,0,0,0.048836,99.789288,0.04403869)">
      <path
         style="display:inline;fill:#000000"
         d="M 206.43716,510.44103 C 173.64253,504.9281 143.88545,485.6907 125.55033,458.1492 93.030508,409.30061 99.659872,345.91077 141.61201,304.5678 L 150.9284,295.38669 151.233,179.44335 151.5376,63.5 153.73728,55.713282 C 161.57382,27.97245 184.35097,6.6631162 211.77451,1.4161263 237.1861,-3.4459129 262.31017,4.7794242 280.11943,23.791484 287.8656,32.060809 293.14839,40.849037 296.77559,51.5 l 2.72441,8 0.5,118 0.5,118 8.39189,8 c 61.21553,58.35686 45.9797,158.56359 -29.80744,196.0449 -22.03161,10.89595 -48.78151,14.90809 -72.64729,10.89613 z M 248.5,479.05294 c 16.31101,-4.14533 35.2749,-15.84412 45.63001,-28.14906 15.31459,-18.19826 22.16049,-36.46106 22.26785,-59.40388 0.13625,-29.11705 -11.99698,-54.20209 -34.93806,-72.23324 -6.03446,-4.74294 -8.79735,-7.65311 -9.91302,-10.44145 C 270.18139,305.41287 270,291.0029 270,185.94822 270,68.117993 269.97939,66.875732 267.92333,60.772419 260.59624,39.022265 237.54205,25.897661 216.25145,31.355934 200.90504,35.290292 190.41349,44.255083 184.59468,58.405927 182.51759,63.457233 182.4958,64.524324 182,185.51078 c -0.49119,119.86072 -0.53524,122.06589 -2.5,125.13786 -1.1,1.7199 -4.475,5.0395 -7.5,7.37689 -17.27316,13.34685 -28.61733,30.17477 -34.17199,50.69069 -3.05802,11.29463 -3.04896,33.49709 0.0183,44.78378 9.47531,34.86707 36.9444,60.28856 72.4953,67.09136 9.6133,1.83954 27.74293,1.10861 38.15843,-1.53842 z m -35,-28.1444 c -2.75,-0.55 -9.22328,-3.04401 -14.38506,-5.54226 -22.41326,-10.8478 -35.66143,-33.93872 -33.76997,-58.85947 0.73775,-9.72025 2.40389,-15.33341 7.33903,-24.72501 6.67213,-12.69707 20.58794,-24.26942 34.55208,-28.73339 l 3.73608,-1.19433 0.26392,-101.67704 c 0.25927,-99.88389 0.29919,-101.72528 2.26392,-104.41251 1.1,-1.5045 3.94149,-3.69618 6.31442,-4.87039 6.88097,-3.40494 13.42139,-1.47668 18.62379,5.49072 2.04647,2.74077 2.06375,3.51415 2.32577,104.11527 l 0.26398,101.354 3.73602,1.20945 c 25.88379,8.37933 43.71631,34.53225 41.89078,61.43642 -1.72277,25.38969 -17.64744,45.91537 -42.37946,54.62388 -6.76623,2.3825 -23.06125,3.32744 -30.7753,1.78466 z m 25.91592,-32.3236 C 250.32358,413.24832 256.4013,403.37785 256.4013,391 c 0,-8.79228 -2.16423,-14.51806 -7.87808,-20.84262 -11.72243,-12.97533 -33.32401,-12.97533 -45.04644,0 -22.66787,25.09063 5.64892,63.24718 35.93914,48.42756 z M 340.6838,268.58264 c -5.15743,-1.88188 -7.30013,-4.01115 -9.29629,-9.23802 -1.43341,-3.75333 -1.49982,-5.0264 -0.44572,-8.54467 1.56976,-5.2394 5.61107,-9.30468 10.63701,-10.7001 2.32369,-0.64516 13.71442,-1.09097 27.95931,-1.09427 22.96283,-0.005 24.23508,0.0951 28.44146,2.24442 6.26553,3.20153 8.52043,6.70809 8.52043,13.25 0,6.1349 -2.12932,9.77499 -7.60453,13 -3.12324,1.83965 -5.43992,2.01905 -28.89547,2.23756 -19.77481,0.18423 -26.3568,-0.0751 -29.3162,-1.15492 z m 0,-60 c -5.15743,-1.88188 -7.30013,-4.01115 -9.29629,-9.23802 -1.43341,-3.75333 -1.49982,-5.0264 -0.44572,-8.54467 1.56976,-5.2394 5.61107,-9.30468 10.63701,-10.7001 2.32369,-0.64516 13.71442,-1.09097 27.95931,-1.09427 22.96283,-0.005 24.23508,0.0951 28.44146,2.24442 6.26553,3.20153 8.52043,6.70809 8.52043,13.25 0,6.1349 -2.12932,9.77499 -7.60453,13 -3.12324,1.83965 -5.43992,2.01905 -28.89547,2.23756 -19.77481,0.18423 -26.3568,-0.0751 -29.3162,-1.15492 z m 1.439,-59.55387 c -5.05585,-1.23986 -8.40292,-4.20653 -10.54232,-9.34416 -1.68576,-4.04823 -1.76611,-5.12165 -0.65979,-8.81425 1.58948,-5.3052 5.61111,-9.36924 10.65811,-10.77051 2.32369,-0.64516 13.71442,-1.09097 27.95931,-1.09427 22.96283,-0.005 24.23508,0.0951 28.44146,2.24442 6.26553,3.20153 8.52043,6.70809 8.52043,13.25 0,6.1349 -2.12932,9.77499 -7.60453,13 -3.12614,1.84136 -5.3785,2.01416 -28.39547,2.17849 -13.75,0.0982 -26.51974,-0.1942 -28.3772,-0.64972 z m 0.15225,-59.96225 c -5.18106,-1.291147 -8.3227,-3.919998 -10.46067,-8.753246 -3.43284,-7.760489 -0.1757,-15.938865 7.74286,-19.441621 4.19198,-1.854308 6.32534,-1.970797 30.80354,-1.681971 L 396.66042,59.5 l 3.7759,2.881822 c 9.14528,6.979826 8.39149,19.267829 -1.54085,25.118178 -3.1252,1.840804 -5.38542,2.014733 -28.39547,2.185097 -13.75,0.101804 -26.45123,-0.176556 -28.22495,-0.618577 z"
         id="path876" />
      <path
         style="display:inline;fill:#000000;stroke-width:0.586483"
         d="m 212.73595,450.43106 c -13.34644,-3.77111 -26.03696,-11.84191 -33.79774,-21.49437 -4.68088,-5.82184 -9.81317,-15.79801 -11.57716,-22.5037 -1.8682,-7.10186 -2.16832,-20.45203 -0.62746,-27.91069 3.661,-17.7213 16.25321,-33.64243 33.29338,-42.09492 2.56065,-1.27017 6.13873,-2.76862 7.95128,-3.32989 l 3.29555,-1.02048 0.36386,-99.1794 c 0.20013,-54.54867 0.57811,-100.69374 0.83996,-102.54461 0.53757,-3.79965 2.18968,-5.97404 6.44561,-8.48323 5.89194,-3.47375 11.07058,-2.99592 16.0499,1.48092 5.10815,4.59267 4.74639,0.88365 5.24424,53.76729 0.24293,25.80527 0.46248,71.21687 0.48788,100.91466 l 0.0462,53.99599 3.24395,1.02257 c 5.58379,1.76013 14.44796,6.59419 19.43323,10.59788 10.5539,8.47588 18.08769,20.312 21.48405,33.75298 1.89648,7.50529 1.73906,20.40964 -0.34491,28.27191 -1.74362,6.57823 -5.0478,13.94874 -8.65345,19.30294 -3.23081,4.7976 -10.93847,12.50629 -15.73258,15.73471 -5.35146,3.60375 -15.13637,8.13208 -19.81574,9.17046 -5.9527,1.32095 -23.65324,1.67264 -27.63003,0.54898 z m 20.12136,-29.34649 c 10.33147,-2.6312 18.22863,-9.57998 21.98348,-19.34345 1.13066,-2.93997 1.35983,-4.67674 1.39297,-10.5567 0.0479,-8.50485 -1.17392,-12.76232 -5.21777,-18.18098 -6.63153,-8.88611 -15.66565,-13.05348 -26.97933,-12.44538 -9.23465,0.49635 -16.76506,4.48786 -22.40946,11.87817 -7.23728,9.47591 -8.4738,20.70693 -3.43297,31.18077 6.70163,13.92465 20.75919,21.00859 34.66308,17.46757 z"
         id="path1261" />
      <path
         style="fill:#000000;stroke-width:0.146621"
         d="m 223.74341,421.73007 c -7.59699,-0.42361 -15.44287,-4.47924 -20.61861,-10.65799 -5.04855,-6.02693 -7.75252,-13.14246 -7.75252,-20.40083 0,-5.98283 1.75184,-11.55098 5.23214,-16.63014 3.28131,-4.78875 7.1232,-8.16354 11.94384,-10.49166 4.23867,-2.04707 8.37678,-2.93693 13.64527,-2.93427 3.79827,0.002 6.47609,0.41267 9.71278,1.48988 4.63158,1.54144 8.50669,3.98127 11.90153,7.49337 4.38603,4.53753 6.94501,9.17951 7.89506,14.32165 0.36561,1.97885 0.55572,6.72546 0.39371,9.83021 -0.15648,2.99894 -0.53665,5.04465 -1.44412,7.7709 -2.44064,7.33224 -7.92427,13.40145 -15.36727,17.0083 -5.19152,2.5158 -10.01364,3.50883 -15.54181,3.20058 z"
         id="path3717" />
    </g>
  </g>
</svg>
